[Header]
# KeyWord<space>Value<CR>FileType htr
DataType HTRS
FileVersion 1.0
NumSegments 32
NumFrames 4
DataFrameRate 24
EulerRotationOrder XYZ
CalibrationUnits m
RotationUnits Degrees
GlobalAxisofGravity Z
BoneLengthAxis Z
ScaleFactor 1.0
[SegmentNames&Hierarchy]
# ObjectName<tab>ParentObjectName<CR>
pelvis	GLOBAL
spine01	pelvis
spine02	spine01
spine03	spine02
neck	spine03
head	neck
Collar_left	spine03
shoulder_up_left	Collar_left
bicep_up_left	shoulder_up_left
forearm_up_left	bicep_up_left
hand_up_left	forearm_up_left
shoulder_down_left	Collar_left
bicep_down_left	shoulder_down_left
forearm_down_left	bicep_down_left
hand_down_left	forearm_down_left
Collar_right	spine03
shoulder_up_right	Collar_right
bicep_up_right	shoulder_up_right
forearm_up_right	bicep_up_right
hand_up_right	forearm_up_right
shoulder_down_right	Collar_right
bicep_down_right	shoulder_down_right
forearm_down_right	bicep_down_right
hand_down_right	forearm_down_right
hip_left	pelvis
thigh_left	hip_left
shin_left	thigh_left
foot_left	shin_left
hip_right	pelvis
thigh_right	hip_right
shin_right	thigh_right
foot_right	shin_right
[BasePosition]
# ObjectName<tab>Tx<tab>Ty<tab>Tz<tab>Rx<tab>Ry<tab>Rz<tab>BoneLength<CR>
pelvis	0.000000	-0.438872	6.292980	90.000003	-0.000000	0.000000	1.677268
spine01	0.000000	1.677268	0.000000	0.000000	-0.000000	0.000000	2.370449
spine02	0.000000	2.370449	0.000000	0.000000	-0.000000	0.000000	2.680865
spine03	0.000000	2.680865	0.000000	0.000000	-0.000000	0.000000	3.160599
neck	0.000000	3.160599	0.000000	0.000000	-0.000000	0.000000	1.269882
head	0.000000	1.269882	0.000000	0.000000	0.000014	0.000000	4.176504
Collar_left	0.000000	3.160599	0.000000	21.069689	1.138138	109.250822	2.543778
shoulder_up_left	0.000001	2.543777	0.000000	-20.742461	-3.950507	-7.147224	2.341869
bicep_up_left	-0.000001	2.341868	0.000000	4.293160	0.027559	-5.998107	4.071239
forearm_up_left	0.000000	4.071239	-0.000000	-8.968416	-0.165229	-2.037328	3.736216
hand_up_left	0.000000	3.736216	0.000000	-0.780378	-0.284650	4.522557	2.141806
shoulder_down_left	0.000001	2.543777	0.000000	-11.374732	11.433438	33.097546	3.448410
bicep_down_left	-0.000001	3.448409	-0.000000	-0.711867	-1.315530	-6.783924	3.064684
forearm_down_left	0.000001	3.064684	0.000000	-17.686662	0.165761	1.581994	3.587720
hand_down_left	0.000000	3.587720	0.000000	11.694505	-0.524996	2.534701	2.862190
Collar_right	0.000000	3.160599	0.000000	21.069689	-1.138138	-109.250822	2.543778
shoulder_up_right	-0.000001	2.543777	0.000000	-20.742461	3.950507	7.147224	2.341869
bicep_up_right	0.000001	2.341868	0.000000	4.293160	-0.027559	5.998107	4.071239
forearm_up_right	0.000000	4.071239	-0.000000	-8.968416	0.165229	2.037328	3.736216
hand_up_right	0.000000	3.736216	0.000000	-0.780378	0.284650	-4.522557	2.141806
shoulder_down_right	-0.000001	2.543777	0.000000	-11.374732	-11.433438	-33.097546	3.448410
bicep_down_right	0.000001	3.448409	-0.000000	-0.711867	1.315530	6.783924	3.064684
forearm_down_right	-0.000001	3.064684	0.000000	-17.686662	-0.165761	-1.581994	3.587720
hand_down_right	0.000000	3.587720	0.000000	11.694505	0.524996	-2.534701	2.862190
hip_left	0.000000	-0.000003	0.000000	-96.241914	89.999996	0.000000	2.616231
thigh_left	0.000000	2.616231	0.000000	-73.061577	0.000001	0.000006	2.153898
shin_left	0.000000	2.153898	0.000000	-11.660560	0.342853	1.646302	2.782515
foot_left	0.000000	2.782514	0.000000	0.241543	0.154340	-77.422202	3.370008
hip_right	0.000000	-0.000003	0.000000	-96.241914	-89.999996	0.000000	2.616231
thigh_right	-0.000000	2.616231	0.000000	-73.061577	-0.000001	-0.000006	2.153898
shin_right	0.000000	2.153898	0.000000	-11.660560	-0.342853	-1.646302	2.782515
foot_right	-0.000000	2.782514	0.000000	0.241543	-0.154340	77.422202	3.370008
[pelvis]
# Tx<tab>Ty<tab>Tz<tab>Rx<tab>Ry<tab>Rz<tab>BoneScaleFactor<CR>
7	0.000000	0.000000	0.000000	0.000000	-0.000000	0.000000	1.000000
8	0.000000	0.000000	0.000000	0.000000	-0.000000	0.000000	1.000000
9	0.000000	0.000000	0.000000	0.000000	-0.000000	0.000000	1.000000
10	0.000000	0.000000	0.000000	0.000000	-0.000000	0.000000	1.000000
[spine01]
# Tx<tab>Ty<tab>Tz<tab>Rx<tab>Ry<tab>Rz<tab>BoneScaleFactor<CR>
7	0.000000	0.000000	0.000000	-1.912169	-0.000000	0.000000	1.000000
8	0.000000	0.000000	0.000000	-2.533270	-0.000000	0.000000	1.000000
9	0.000000	0.000000	0.000000	-3.218109	-0.000000	0.000000	1.000000
10	0.000000	0.000000	0.000000	-3.958190	-0.000000	0.000000	1.000000
[spine02]
# Tx<tab>Ty<tab>Tz<tab>Rx<tab>Ry<tab>Rz<tab>BoneScaleFactor<CR>
7	0.000000	0.000000	0.000000	-1.530985	-0.000000	0.000000	1.000000
8	0.000000	0.000000	0.000000	-2.028271	-0.000000	0.000000	1.000000
9	0.000000	0.000000	0.000000	-2.576591	-0.000000	0.000000	1.000000
10	0.000000	0.000000	0.000000	-3.169139	-0.000000	0.000000	1.000000
[spine03]
# Tx<tab>Ty<tab>Tz<tab>Rx<tab>Ry<tab>Rz<tab>BoneScaleFactor<CR>
7	0.000000	0.000000	0.000000	-1.812514	-0.000000	0.000000	1.000000
8	0.000000	0.000000	0.000000	-2.401246	-0.000000	0.000000	1.000000
9	0.000000	0.000000	0.000000	-3.050394	-0.000000	0.000000	1.000000
10	0.000000	0.000000	0.000000	-3.751904	-0.000000	0.000000	1.000000
[neck]
# Tx<tab>Ty<tab>Tz<tab>Rx<tab>Ry<tab>Rz<tab>BoneScaleFactor<CR>
7	0.000000	0.000000	0.000000	0.000000	-0.000000	0.000000	1.000000
8	0.000000	0.000000	0.000000	0.000000	-0.000000	0.000000	1.000000
9	0.000000	0.000000	0.000000	0.000000	-0.000000	0.000000	1.000000
10	0.000000	0.000000	0.000000	0.000000	-0.000000	0.000000	1.000000
[head]
# Tx<tab>Ty<tab>Tz<tab>Rx<tab>Ry<tab>Rz<tab>BoneScaleFactor<CR>
7	0.000000	0.000000	0.000000	0.000000	-0.000000	0.000000	1.000000
8	0.000000	0.000000	0.000000	0.000000	-0.000000	0.000000	1.000000
9	0.000000	0.000000	0.000000	0.000000	-0.000000	0.000000	1.000000
10	0.000000	0.000000	0.000000	0.000000	-0.000000	0.000000	1.000000
[Collar_left]
# Tx<tab>Ty<tab>Tz<tab>Rx<tab>Ry<tab>Rz<tab>BoneScaleFactor<CR>
7	0.000000	0.000000	0.000000	0.000000	-0.000000	0.000000	1.000000
8	0.000000	0.000000	0.000000	0.000000	-0.000000	0.000000	1.000000
9	0.000000	0.000000	0.000000	0.000000	-0.000000	0.000000	1.000000
10	0.000000	0.000000	0.000000	0.000000	-0.000000	0.000000	1.000000
[shoulder_up_left]
# Tx<tab>Ty<tab>Tz<tab>Rx<tab>Ry<tab>Rz<tab>BoneScaleFactor<CR>
7	0.000000	0.000000	0.000000	-0.249076	-0.954393	-4.755203	1.000000
8	0.000000	0.000000	0.000000	-0.329979	-1.264395	-6.299764	1.000000
9	0.000000	0.000000	0.000000	-0.419185	-1.606209	-8.002831	1.000000
10	0.000000	0.000000	0.000000	-0.515587	-1.975595	-9.843272	1.000000
[bicep_up_left]
# Tx<tab>Ty<tab>Tz<tab>Rx<tab>Ry<tab>Rz<tab>BoneScaleFactor<CR>
7	0.000000	0.000000	0.000000	0.000000	-0.000000	0.000000	1.000000
8	0.000000	0.000000	0.000000	0.000000	-0.000000	0.000000	1.000000
9	0.000000	0.000000	0.000000	0.000000	-0.000000	0.000000	1.000000
10	0.000000	0.000000	0.000000	0.000000	-0.000000	0.000000	1.000000
[forearm_up_left]
# Tx<tab>Ty<tab>Tz<tab>Rx<tab>Ry<tab>Rz<tab>BoneScaleFactor<CR>
7	0.000000	0.000000	0.000000	-1.621789	-1.299640	-1.822237	1.000000
8	0.000000	0.000000	0.000000	-2.148571	-1.721782	-2.414126	1.000000
9	0.000000	0.000000	0.000000	-2.729412	-2.187246	-3.066757	1.000000
10	0.000000	0.000000	0.000000	-3.357104	-2.690255	-3.772030	1.000000
[hand_up_left]
# Tx<tab>Ty<tab>Tz<tab>Rx<tab>Ry<tab>Rz<tab>BoneScaleFactor<CR>
7	0.000000	0.000000	0.000000	0.101010	-4.285315	0.248187	1.000000
8	0.000000	0.000000	0.000000	0.133820	-5.677249	0.328802	1.000000
9	0.000000	0.000000	0.000000	0.169997	-7.212027	0.417690	1.000000
10	0.000000	0.000000	0.000000	0.209092	-8.870605	0.513748	1.000000
[shoulder_down_left]
# Tx<tab>Ty<tab>Tz<tab>Rx<tab>Ry<tab>Rz<tab>BoneScaleFactor<CR>
7	0.000000	0.000000	0.000000	0.000000	-0.000000	0.000000	1.000000
8	0.000000	0.000000	0.000000	0.000000	-0.000000	0.000000	1.000000
9	0.000000	0.000000	0.000000	0.000000	-0.000000	0.000000	1.000000
10	0.000000	0.000000	0.000000	0.000000	-0.000000	0.000000	1.000000
[bicep_down_left]
# Tx<tab>Ty<tab>Tz<tab>Rx<tab>Ry<tab>Rz<tab>BoneScaleFactor<CR>
7	0.000000	0.000000	0.000000	-1.931767	1.060636	-2.993594	1.000000
8	0.000000	0.000000	0.000000	-2.559233	1.405146	-3.965958	1.000000
9	0.000000	0.000000	0.000000	-3.251092	1.785011	-5.038108	1.000000
10	0.000000	0.000000	0.000000	-3.998758	2.195516	-6.196741	1.000000
[forearm_down_left]
# Tx<tab>Ty<tab>Tz<tab>Rx<tab>Ry<tab>Rz<tab>BoneScaleFactor<CR>
7	0.000000	0.000000	0.000000	-2.117993	2.004432	-2.668775	1.000000
8	0.000000	0.000000	0.000000	-2.805949	2.655502	-3.535633	1.000000
9	0.000000	0.000000	0.000000	-3.564504	3.373385	-4.491448	1.000000
10	0.000000	0.000000	0.000000	-4.384246	4.149175	-5.524365	1.000000
[hand_down_left]
# Tx<tab>Ty<tab>Tz<tab>Rx<tab>Ry<tab>Rz<tab>BoneScaleFactor<CR>
7	0.000000	0.000000	0.000000	0.000000	-0.000000	0.000000	1.000000
8	0.000000	0.000000	0.000000	0.000000	-0.000000	0.000000	1.000000
9	0.000000	0.000000	0.000000	0.000000	-0.000000	0.000000	1.000000
10	0.000000	0.000000	0.000000	0.000000	-0.000000	0.000000	1.000000
[Collar_right]
# Tx<tab>Ty<tab>Tz<tab>Rx<tab>Ry<tab>Rz<tab>BoneScaleFactor<CR>
7	0.000000	0.000000	0.000000	0.000000	-0.000000	0.000000	1.000000
8	0.000000	0.000000	0.000000	0.000000	-0.000000	0.000000	1.000000
9	0.000000	0.000000	0.000000	0.000000	-0.000000	0.000000	1.000000
10	0.000000	0.000000	0.000000	0.000000	-0.000000	0.000000	1.000000
[shoulder_up_right]
# Tx<tab>Ty<tab>Tz<tab>Rx<tab>Ry<tab>Rz<tab>BoneScaleFactor<CR>
7	0.000000	0.000000	0.000000	0.279310	0.775524	4.501441	1.000000
8	0.000000	0.000000	0.000000	0.370034	1.027426	5.963576	1.000000
9	0.000000	0.000000	0.000000	0.470068	1.305179	7.575757	1.000000
10	0.000000	0.000000	0.000000	0.578171	1.605335	9.317983	1.000000
[bicep_up_right]
# Tx<tab>Ty<tab>Tz<tab>Rx<tab>Ry<tab>Rz<tab>BoneScaleFactor<CR>
7	0.000000	0.000000	0.000000	0.000000	-0.000000	0.000000	1.000000
8	0.000000	0.000000	0.000000	0.000000	-0.000000	0.000000	1.000000
9	0.000000	0.000000	0.000000	0.000000	-0.000000	0.000000	1.000000
10	0.000000	0.000000	0.000000	0.000000	-0.000000	0.000000	1.000000
[forearm_up_right]
# Tx<tab>Ty<tab>Tz<tab>Rx<tab>Ry<tab>Rz<tab>BoneScaleFactor<CR>
7	0.000000	0.000000	0.000000	-2.195267	2.135209	2.509759	1.000000
8	0.000000	0.000000	0.000000	-2.908322	2.828757	3.324967	1.000000
9	0.000000	0.000000	0.000000	-3.694553	3.593478	4.223832	1.000000
10	0.000000	0.000000	0.000000	-4.544202	4.419884	5.195202	1.000000
[hand_up_right]
# Tx<tab>Ty<tab>Tz<tab>Rx<tab>Ry<tab>Rz<tab>BoneScaleFactor<CR>
7	0.000000	0.000000	0.000000	-1.010260	4.361739	-0.875897	1.000000
8	0.000000	0.000000	0.000000	-1.338407	5.778497	-1.160402	1.000000
9	0.000000	0.000000	0.000000	-1.700230	7.340644	-1.474102	1.000000
10	0.000000	0.000000	0.000000	-2.091238	9.028800	-1.813107	1.000000
[shoulder_down_right]
# Tx<tab>Ty<tab>Tz<tab>Rx<tab>Ry<tab>Rz<tab>BoneScaleFactor<CR>
7	0.000000	0.000000	0.000000	0.000000	-0.000000	0.000000	1.000000
8	0.000000	0.000000	0.000000	0.000000	-0.000000	0.000000	1.000000
9	0.000000	0.000000	0.000000	0.000000	-0.000000	0.000000	1.000000
10	0.000000	0.000000	0.000000	0.000000	-0.000000	0.000000	1.000000
[bicep_down_right]
# Tx<tab>Ty<tab>Tz<tab>Rx<tab>Ry<tab>Rz<tab>BoneScaleFactor<CR>
7	0.000000	0.000000	0.000000	-2.429384	-1.163593	3.714674	1.000000
8	0.000000	0.000000	0.000000	-3.218485	-1.541546	4.921255	1.000000
9	0.000000	0.000000	0.000000	-4.088564	-1.958284	6.251657	1.000000
10	0.000000	0.000000	0.000000	-5.028825	-2.408638	7.689374	1.000000
[forearm_down_right]
# Tx<tab>Ty<tab>Tz<tab>Rx<tab>Ry<tab>Rz<tab>BoneScaleFactor<CR>
7	0.000000	0.000000	0.000000	-1.307067	-1.440940	1.690820	1.000000
8	0.000000	0.000000	0.000000	-1.731621	-1.908979	2.240023	1.000000
9	0.000000	0.000000	0.000000	-2.199744	-2.425049	2.845586	1.000000
10	0.000000	0.000000	0.000000	-2.705628	-2.982746	3.499996	1.000000
[hand_down_right]
# Tx<tab>Ty<tab>Tz<tab>Rx<tab>Ry<tab>Rz<tab>BoneScaleFactor<CR>
7	0.000000	0.000000	0.000000	0.000000	-0.000000	0.000000	1.000000
8	0.000000	0.000000	0.000000	0.000000	-0.000000	0.000000	1.000000
9	0.000000	0.000000	0.000000	0.000000	-0.000000	0.000000	1.000000
10	0.000000	0.000000	0.000000	0.000000	-0.000000	0.000000	1.000000
[hip_left]
# Tx<tab>Ty<tab>Tz<tab>Rx<tab>Ry<tab>Rz<tab>BoneScaleFactor<CR>
7	0.000000	0.000000	0.000000	0.000000	-0.000000	0.000000	1.000000
8	0.000000	0.000000	0.000000	0.000000	-0.000000	0.000000	1.000000
9	0.000000	0.000000	0.000000	0.000000	-0.000000	0.000000	1.000000
10	0.000000	0.000000	0.000000	0.000000	-0.000000	0.000000	1.000000
[thigh_left]
# Tx<tab>Ty<tab>Tz<tab>Rx<tab>Ry<tab>Rz<tab>BoneScaleFactor<CR>
7	0.000000	0.000000	0.000000	0.000000	-0.000000	0.000000	1.000000
8	0.000000	0.000000	0.000000	0.000000	-0.000000	0.000000	1.000000
9	0.000000	0.000000	0.000000	0.000000	-0.000000	0.000000	1.000000
10	0.000000	0.000000	0.000000	0.000000	-0.000000	0.000000	1.000000
[shin_left]
# Tx<tab>Ty<tab>Tz<tab>Rx<tab>Ry<tab>Rz<tab>BoneScaleFactor<CR>
7	0.000000	0.000000	0.000000	0.000000	-0.000000	0.000000	1.000000
8	0.000000	0.000000	0.000000	0.000000	-0.000000	0.000000	1.000000
9	0.000000	0.000000	0.000000	0.000000	-0.000000	0.000000	1.000000
10	0.000000	0.000000	0.000000	0.000000	-0.000000	0.000000	1.000000
[foot_left]
# Tx<tab>Ty<tab>Tz<tab>Rx<tab>Ry<tab>Rz<tab>BoneScaleFactor<CR>
7	0.000000	0.000000	0.000000	0.000000	-0.000000	0.000000	1.000000
8	0.000000	0.000000	0.000000	0.000000	-0.000000	0.000000	1.000000
9	0.000000	0.000000	0.000000	0.000000	-0.000000	0.000000	1.000000
10	0.000000	0.000000	0.000000	0.000000	-0.000000	0.000000	1.000000
[hip_right]
# Tx<tab>Ty<tab>Tz<tab>Rx<tab>Ry<tab>Rz<tab>BoneScaleFactor<CR>
7	0.000000	0.000000	0.000000	0.000000	-0.000000	0.000000	1.000000
8	0.000000	0.000000	0.000000	0.000000	-0.000000	0.000000	1.000000
9	0.000000	0.000000	0.000000	0.000000	-0.000000	0.000000	1.000000
10	0.000000	0.000000	0.000000	0.000000	-0.000000	0.000000	1.000000
[thigh_right]
# Tx<tab>Ty<tab>Tz<tab>Rx<tab>Ry<tab>Rz<tab>BoneScaleFactor<CR>
7	0.000000	0.000000	0.000000	0.000000	-0.000000	0.000000	1.000000
8	0.000000	0.000000	0.000000	0.000000	-0.000000	0.000000	1.000000
9	0.000000	0.000000	0.000000	0.000000	-0.000000	0.000000	1.000000
10	0.000000	0.000000	0.000000	0.000000	-0.000000	0.000000	1.000000
[shin_right]
# Tx<tab>Ty<tab>Tz<tab>Rx<tab>Ry<tab>Rz<tab>BoneScaleFactor<CR>
7	0.000000	0.000000	0.000000	0.000000	-0.000000	0.000000	1.000000
8	0.000000	0.000000	0.000000	0.000000	-0.000000	0.000000	1.000000
9	0.000000	0.000000	0.000000	0.000000	-0.000000	0.000000	1.000000
10	0.000000	0.000000	0.000000	0.000000	-0.000000	0.000000	1.000000
[foot_right]
# Tx<tab>Ty<tab>Tz<tab>Rx<tab>Ry<tab>Rz<tab>BoneScaleFactor<CR>
7	0.000000	0.000000	0.000000	0.000000	-0.000000	0.000000	1.000000
8	0.000000	0.000000	0.000000	0.000000	-0.000000	0.000000	1.000000
9	0.000000	0.000000	0.000000	0.000000	-0.000000	0.000000	1.000000
10	0.000000	0.000000	0.000000	0.000000	-0.000000	0.000000	1.000000
[EndOfFile]
